# xmcd
#
# Track frame offsets:
#	150
#	21375
#	39150
#	62100
#	87300
#	112575
#	135600
#	156150
#	179475
#	203100
#	225975
#	250125
#	270450
#	282525
#	304050
#	323475
#
# Disc length: 4485 seconds
#
# Revision: 1
# Processed by: cddbd v1.5.1PL2 Copyright (c) Steve Scherf et al.
# Submitted via: audiograbber 1.83.01
#
DISCID=d1118310
DTITLE=Various Artist - DKG-701
DYEAR=1900
DGENRE=Karaoke
TTITLE0=Standard - Mi Mundo
TTITLE1=Standard - Desperado
TTITLE2=Standard - Olivide De Vivir
TTITLE3=Del Camino - Sentado A La Vera
TTITLE4=Standard - Casi Te Envido
TTITLE5=Standard - Sonambulo
TTITLE6=Standard - Mascarada
TTITLE7=Standard - Ven Devorame Otra Vez
TTITLE8=Standard - Que Locura Enamorme De Ti
TTITLE9=Standard - Me Lo Estas Poniendo Dificil
TTITLE10=Standard - Cara Dura
TTITLE11=Standard - Yo No Puedo Ser Tu Amante
TTITLE12=Standard - Esta Tarde Ve Llover
TTITLE13=Standard - Que Sera De Ti
TTITLE14=Standard - Tu No Le Amas Le Temes
TTITLE15=Standard - Carmentea
EXTD=
EXTT0=
EXTT1=
EXTT2=
EXTT3=
EXTT4=
EXTT5=
EXTT6=
EXTT7=
EXTT8=
EXTT9=
EXTT10=
EXTT11=
EXTT12=
EXTT13=
EXTT14=
EXTT15=
PLAYORDER=
